# xmcd
#
# Track frame offsets:
#	150
#	12837
#	22975
#	36300
#	47900
#	58237
#	71287
#	81600
#	91862
#	104200
#	118200
#	131887
#	143862
#	154375
#	165000
#	175837
#	185850
#	196437
#	213950
#	228975
#	241937
#	253512
#	265300
#	279787
#
# Disc length: 3864 seconds
#
# Revision: 2
# Processed by: cddbd v1.5.2PL0 Copyright (c) Steve Scherf et al.
# Submitted via: audiograbber 1.83.01
#
DISCID=5e0f1618
DTITLE=David Houston - The Best Of David Houston
DYEAR=1999
DGENRE=Oldies
TTITLE0=Mountain Of Love
TTITLE1=Living In A House Full Of Love
TTITLE2=Almost Persuaded
TTITLE3=A Loser's Cathedral
TTITLE4=With One Exception
TTITLE5=My Elusive Dreams
TTITLE6=You Mean The World To Me
TTITLE7=Have A Little Faith
TTITLE8=Already It's Heaven
TTITLE9=Where Love Used To Live
TTITLE10=My Woman's Good To Me
TTITLE11=I'm Down To My Last 'I Love You'
TTITLE12=Baby, Baby (I Know You're A Lady)
TTITLE13=I Do My Swinging At Home
TTITLE14=Wonders Of The Wine
TTITLE15=After Closing Time
TTITLE16=A Woman Always Knows
TTITLE17=Nashville
TTITLE18=Maiden's Prayer
TTITLE19=Soft, Sweet And Warm
TTITLE20=Good Things
TTITLE21=She's All Woman
TTITLE22=I Love You, I Love You
TTITLE23=Can't You Feel It
EXTD=
EXTT0=
EXTT1=
EXTT2=
EXTT3=
EXTT4=
EXTT5=
EXTT6=
EXTT7=
EXTT8=
EXTT9=
EXTT10=
EXTT11=
EXTT12=
EXTT13=
EXTT14=
EXTT15=
EXTT16=
EXTT17=
EXTT18=
EXTT19=
EXTT20=
EXTT21=
EXTT22=
EXTT23=
PLAYORDER=
